<svg width="117" height="47" viewBox="0 0 117 47" fill="none" xmlns="http://www.w3.org/2000/svg">
<path fill-rule="evenodd" clip-rule="evenodd" d="M15 0C6.71573 0 0 6.71572 0 15V22.2056C0 30.4899 6.71573 37.2056 15 37.2056H82.4655C86.4619 41.5987 92.8549 45.7418 101.79 46.8368C97.0401 44.472 94.4124 41.7517 93.4793 37.2056H102C110.284 37.2056 117 30.4899 117 22.2056V15C117 6.71573 110.284 0 102 0H15Z" fill="#007AFF"/>
<path d="M33.6464 11.7617V24.3125H31.7871V11.7617H33.6464ZM22.4765 20.5391C24.3496 19.377 24.9306 17.1348 24.9238 15.0566V14.5508H22.9824V12.9785H28.6015V14.5508H26.8242V15.0566C26.8173 17.1143 27.3642 19.1992 29.2304 20.2656L28.0957 21.7012C27.0088 21.0723 26.3115 20.0332 25.8945 18.7822C25.4707 20.1494 24.7529 21.3115 23.6523 21.9883L22.4765 20.5391ZM27.7265 17.5723V16H29.2304V11.9395H31.0625V23.752H29.2304V17.5723H27.7265ZM46.3771 11.7617V18.9941H44.4221V16.1777H42.6037V14.5781H44.4221V11.7617H46.3771ZM35.6447 17.5039C37.6613 16.875 38.4885 15.3779 38.591 13.9219H36.1916V12.3496H43.0002V13.9219H40.6145C40.7033 15.2549 41.5031 16.6562 43.424 17.2988L42.467 18.8438C41.093 18.3994 40.1701 17.5381 39.6232 16.4648C39.0764 17.6475 38.1125 18.5977 36.6564 19.0488L35.6447 17.5039ZM37.8732 24.1758V19.4727H46.3771V24.1758H37.8732ZM39.8557 22.6035H44.4631V21.0176H39.8557V22.6035ZM53.5013 12.6777C53.5013 14.0723 54.7523 15.7471 57.8216 16.1094L57.056 17.6953C54.8138 17.3877 53.2757 16.4033 52.4622 15.1045C51.6419 16.4033 50.1107 17.3877 47.8958 17.6953L47.1302 16.1094C50.1722 15.7471 51.4232 14.0654 51.4232 12.6777V12.1035H53.5013V12.6777ZM46.7337 20.1016V18.502H58.1771V20.1016H53.3919V24.3125H51.4368V20.1016H46.7337ZM67.9125 15.0703V16.6016H59.0942V12.2129H61.0493V15.0703H67.9125ZM57.6996 19.3633V17.8184H69.1704V19.3633H57.6996ZM58.9711 24.0391V20.3066H60.9399V22.4668H67.9946V24.0391H58.9711ZM80.1636 21.291V22.8906H68.6929V21.291H71.1675V18.3105C70.2242 17.7158 69.6568 16.8271 69.6636 15.7266C69.6568 13.6826 71.6734 12.3223 74.4078 12.3223C77.1353 12.3223 79.1724 13.6826 79.1793 15.7266C79.1724 16.8066 78.6255 17.6816 77.7164 18.2695V21.291H80.1636ZM71.6187 15.7266C71.6119 16.916 72.6988 17.6133 74.4078 17.6133C76.1031 17.6133 77.2242 16.916 77.2242 15.7266C77.2242 14.5234 76.1031 13.8604 74.4078 13.8672C72.6988 13.8604 71.6119 14.5234 71.6187 15.7266ZM73.1089 21.291H75.7203V19.0215C75.3101 19.0898 74.8658 19.1309 74.4078 19.1309C73.9498 19.1309 73.5191 19.0898 73.1089 19.0215V21.291ZM81.3815 23.1367C80.7048 23.1367 80.1374 22.583 80.1511 21.8926C80.1374 21.2227 80.7048 20.6758 81.3815 20.6758C82.0378 20.6758 82.6188 21.2227 82.6257 21.8926C82.6188 22.583 82.0378 23.1367 81.3815 23.1367ZM84.3494 23.1367C83.6727 23.1367 83.1053 22.583 83.1189 21.8926C83.1053 21.2227 83.6727 20.6758 84.3494 20.6758C85.0057 20.6758 85.5867 21.2227 85.5936 21.8926C85.5867 22.583 85.0057 23.1367 84.3494 23.1367ZM87.3173 23.1367C86.6405 23.1367 86.0732 22.583 86.0868 21.8926C86.0732 21.2227 86.6405 20.6758 87.3173 20.6758C87.9736 20.6758 88.5546 21.2227 88.5614 21.8926C88.5546 22.583 87.9736 23.1367 87.3173 23.1367ZM89.3418 19.7871C89.3418 18.1396 89.7657 17.627 90.545 17.1348C91.1465 16.7451 91.6045 16.3623 91.6114 15.7676C91.6045 15.1729 91.1329 14.7764 90.545 14.7832C89.9639 14.7764 89.4375 15.1865 89.4239 15.877H87.25C87.2774 13.874 88.7608 12.9648 90.5586 12.9648C92.5411 12.9648 93.9698 13.9219 93.9766 15.6582C93.9698 16.8135 93.3614 17.5176 92.4454 18.0645C91.7071 18.4951 91.3584 18.9189 91.3516 19.7871V19.9785H89.3418V19.7871ZM89.1504 21.8926C89.1368 21.2227 89.7041 20.6758 90.3809 20.6758C91.0371 20.6758 91.6182 21.2227 91.625 21.8926C91.6182 22.583 91.0371 23.1367 90.3809 23.1367C89.7041 23.1367 89.1368 22.583 89.1504 21.8926Z" fill="white"/>
</svg>
