<svg width="150" height="48" viewBox="0 0 150 48" fill="none" xmlns="http://www.w3.org/2000/svg">
<path d="M75 48L67.2058 34.5L82.7942 34.5L75 48Z" fill="#007AFF"/>
<rect width="150" height="38" rx="15" fill="#007AFF"/>
<path d="M23.5117 24.1367C21.3447 24.1367 19.7861 22.8789 19.752 21.1152H22.0215C22.0557 21.8467 22.7051 22.3389 23.5117 22.332C24.4414 22.3389 25.1045 21.6826 25.0977 20.7188C25.1045 19.7549 24.4346 19.0918 23.4844 19.0918C22.7803 19.0918 22.3018 19.3721 22.0352 19.8984H19.9434L20.4355 14.1016H26.7656V15.9883H22.3496L22.1172 18.3535H22.1855C22.5205 17.8135 23.2998 17.417 24.2227 17.4238C26.0205 17.417 27.3535 18.7637 27.3535 20.6504C27.3535 22.6875 25.8154 24.1367 23.5117 24.1367ZM37.8546 12.7754V20.0078H35.8722V19.6934H33.6984V18.5449H35.8722V12.7754H37.8546ZM27.1495 17.0957C29.5763 17.0957 32.5431 17.082 35.2159 16.8496L35.3116 18.0527C34.2384 18.1963 33.1515 18.2852 32.0851 18.3467V20.0215H30.13V18.415C29.1593 18.4355 28.2228 18.4355 27.3546 18.4219L27.1495 17.0957ZM27.9698 14.8125C27.963 13.6914 29.2482 12.9326 31.1554 12.9258C33.0353 12.9326 34.3273 13.6914 34.3409 14.8125C34.3273 15.9746 33.0353 16.6924 31.1554 16.6855C29.2482 16.6924 27.963 15.9746 27.9698 14.8125ZM28.9132 21.6621V20.3496H37.8546V23.3848H30.8956V23.877H38.1007V25.2441H28.9542V22.1406H35.8859V21.6621H28.9132ZM29.8292 14.8125C29.8155 15.209 30.3214 15.4072 31.1554 15.4141C31.9894 15.4072 32.4952 15.209 32.4952 14.8125C32.4952 14.4229 31.9894 14.1973 31.1554 14.1973C30.3214 14.1973 29.8155 14.4229 29.8292 14.8125ZM44.392 24.1367C42.0609 24.1367 40.3793 22.9336 40.3861 21.3203C40.3793 20.0898 41.3636 19.0918 42.6146 18.9004V18.832C41.5209 18.627 40.7552 17.7314 40.7552 16.6445C40.7552 15.0928 42.2933 13.9648 44.392 13.9648C46.4769 13.9648 48.015 15.0996 48.015 16.6445C48.015 17.7383 47.2289 18.627 46.1556 18.832V18.9004C47.3861 19.0918 48.3841 20.0898 48.3841 21.3203C48.3841 22.9336 46.7025 24.1367 44.392 24.1367ZM42.8334 21.0742C42.8265 21.8535 43.4623 22.4072 44.392 22.4141C45.308 22.4072 45.9369 21.8535 45.9369 21.0742C45.9369 20.2949 45.2806 19.7207 44.392 19.7207C43.4828 19.7207 42.8265 20.2881 42.8334 21.0742ZM43.0384 16.8906C43.0316 17.6084 43.599 18.1211 44.392 18.1211C45.1712 18.1211 45.7386 17.6084 45.7318 16.8906C45.7386 16.1865 45.1781 15.6875 44.392 15.6875C43.5921 15.6875 43.0316 16.1865 43.0384 16.8906ZM51.7485 13.1035C53.6694 13.1035 55.1323 14.3203 55.1391 16.002C55.1323 17.6699 53.6694 18.8799 51.7485 18.8867C49.8003 18.8799 48.3374 17.6699 48.3442 16.002C48.3374 14.3203 49.8003 13.1035 51.7485 13.1035ZM50.2173 20.9922V19.4883H58.7212V23.0156H52.1723V23.6445H59.022V25.1758H50.2583V21.5938H56.7524V20.9922H50.2173ZM50.2446 16.002C50.2378 16.8428 50.8804 17.2939 51.7485 17.3008C52.603 17.2939 53.2319 16.8428 53.2251 16.002C53.2319 15.1611 52.603 14.71 51.7485 14.7031C50.8804 14.71 50.2378 15.1611 50.2446 16.002ZM56.7524 19.0098V12.7617H58.7212V19.0098H56.7524ZM70.0699 12.7617V25.3125H68.1832V12.7617H70.0699ZM59.2555 18.2031C59.2486 15.3525 60.3287 13.6094 61.9898 13.6094C63.5006 13.6094 64.5396 14.9971 64.7447 17.3281H65.5719V12.9258H67.4313V24.752H65.5719V18.8867H64.7584C64.5943 21.3477 63.5416 22.8242 61.9898 22.8242C60.3287 22.8242 59.2486 21.0742 59.2555 18.2031ZM61.0602 18.2031C61.0533 20.0967 61.3883 20.9375 61.9898 20.9375C62.6188 20.9375 62.9742 20.0967 62.9742 18.2031C62.9742 16.3232 62.6188 15.4688 61.9898 15.4688C61.3883 15.4688 61.0533 16.3232 61.0602 18.2031ZM74.6795 13.7461V15.209H77.1678V13.7461H79.1366V19.5566H76.9354V21.3477C77.8446 21.2998 78.7469 21.2314 79.6014 21.1152L79.7381 22.5371C77.1405 23.0156 74.3582 23.0156 72.2596 23.0293L72.0135 21.4297C72.8954 21.4297 73.9071 21.4297 74.9666 21.4092V19.5566H72.7381V13.7461H74.6795ZM74.6795 18.0254H77.1678V16.6855H74.6795V18.0254ZM80.2303 25.3125V12.7617H82.1991V17.6973H83.7987V19.3242H82.1991V25.3125H80.2303ZM94.6005 22.291V23.8906H83.1298V22.291H85.6045V19.3105C84.6611 18.7158 84.0937 17.8271 84.1005 16.7266C84.0937 14.6826 86.1103 13.3223 88.8447 13.3223C91.5722 13.3223 93.6093 14.6826 93.6162 16.7266C93.6093 17.8066 93.0625 18.6816 92.1533 19.2695V22.291H94.6005ZM86.0556 16.7266C86.0488 17.916 87.1357 18.6133 88.8447 18.6133C90.54 18.6133 91.6611 17.916 91.6611 16.7266C91.6611 15.5234 90.54 14.8604 88.8447 14.8672C87.1357 14.8604 86.0488 15.5234 86.0556 16.7266ZM87.5459 22.291H90.1572V20.0215C89.747 20.0898 89.3027 20.1309 88.8447 20.1309C88.3867 20.1309 87.956 20.0898 87.5459 20.0215V22.291ZM95.8184 24.1367C95.1417 24.1367 94.5743 23.583 94.588 22.8926C94.5743 22.2227 95.1417 21.6758 95.8184 21.6758C96.4747 21.6758 97.0557 22.2227 97.0626 22.8926C97.0557 23.583 96.4747 24.1367 95.8184 24.1367ZM98.7863 24.1367C98.1096 24.1367 97.5422 23.583 97.5559 22.8926C97.5422 22.2227 98.1096 21.6758 98.7863 21.6758C99.4426 21.6758 100.024 22.2227 100.03 22.8926C100.024 23.583 99.4426 24.1367 98.7863 24.1367ZM101.754 24.1367C101.077 24.1367 100.51 23.583 100.524 22.8926C100.51 22.2227 101.077 21.6758 101.754 21.6758C102.41 21.6758 102.992 22.2227 102.998 22.8926C102.992 23.583 102.41 24.1367 101.754 24.1367ZM115.319 12.7617V25.3125H113.46V12.7617H115.319ZM104.149 21.5391C106.022 20.377 106.603 18.1348 106.596 16.0566V15.5508H104.655V13.9785H110.274V15.5508H108.497V16.0566C108.49 18.1143 109.037 20.1992 110.903 21.2656L109.768 22.7012C108.681 22.0723 107.984 21.0332 107.567 19.7822C107.143 21.1494 106.425 22.3115 105.325 22.9883L104.149 21.5391ZM109.399 18.5723V17H110.903V12.9395H112.735V24.752H110.903V18.5723H109.399ZM117.685 13.3359V14.7305H119.914V13.3359H121.882V18.8184H115.744V13.3359H117.685ZM116.988 21.0469V19.543H125.41V23.0703H118.943V23.6992H125.738V25.2441H117.002V21.6758H123.441V21.0469H116.988ZM117.685 17.2871H119.914V16.1934H117.685V17.2871ZM123.441 19.1191V12.7617H125.41V15.1133H127.037V16.6992H125.41V19.1191H123.441ZM129.512 14.1016L129.307 20.9785H127.352L127.147 14.1016H129.512ZM127.093 22.8926C127.079 22.2227 127.646 21.6758 128.323 21.6758C128.979 21.6758 129.56 22.2227 129.567 22.8926C129.56 23.583 128.979 24.1367 128.323 24.1367C127.646 24.1367 127.079 23.583 127.093 22.8926Z" fill="white"/>
</svg>
