<svg width="37" height="26" viewBox="0 0 37 26" fill="none" xmlns="http://www.w3.org/2000/svg">
<g filter="url(#filter0_d_317_4210)">
<rect x="2" y="1" width="32" height="21.7476" rx="5" fill="white"/>
</g>
<g filter="url(#filter1_d_317_4210)">
<path fill-rule="evenodd" clip-rule="evenodd" d="M14.4096 15.9089C16.3205 17.6584 19.2513 17.6584 21.1622 15.9089L33.5718 4.54785C32.9496 2.49463 31.0423 1 28.7859 1H6.78589C4.52951 1 2.62221 2.49462 2.00003 4.54784L14.4096 15.9089Z" fill="white"/>
</g>
<g filter="url(#filter2_d_317_4210)">
<path fill-rule="evenodd" clip-rule="evenodd" d="M18 13.0124C17.8657 12.2602 17.0573 11 15.5132 11C13.846 11 13.0008 12.178 13.0008 13.5742C12.971 15.0096 13.758 17.1562 17.9807 19.3137V19.3333C17.9871 19.3301 17.9936 19.3268 18 19.3235C18.0064 19.3268 18.0128 19.3301 18.0193 19.3333V19.3137C22.242 17.1562 23.029 15.0096 22.9992 13.5742C22.9992 12.178 22.154 11 20.4868 11C18.9426 11 18.1343 12.2602 18 13.0124Z" fill="#D80000"/>
</g>
<defs>
<filter id="filter0_d_317_4210" x="1" y="0" width="36" height="25.7476" filterUnits="userSpaceOnUse" color-interpolation-filters="sRGB">
<feFlood flood-opacity="0" result="BackgroundImageFix"/>
<feColorMatrix in="SourceAlpha" type="matrix" values="0 0 0 0 0 0 0 0 0 0 0 0 0 0 0 0 0 0 127 0" result="hardAlpha"/>
<feOffset dx="1" dy="1"/>
<feGaussianBlur stdDeviation="1"/>
<feComposite in2="hardAlpha" operator="out"/>
<feColorMatrix type="matrix" values="0 0 0 0 0 0 0 0 0 0 0 0 0 0 0 0 0 0 0.15 0"/>
<feBlend mode="normal" in2="BackgroundImageFix" result="effect1_dropShadow_317_4210"/>
<feBlend mode="normal" in="SourceGraphic" in2="effect1_dropShadow_317_4210" result="shape"/>
</filter>
<filter id="filter1_d_317_4210" x="0" y="0" width="35.5718" height="20.2212" filterUnits="userSpaceOnUse" color-interpolation-filters="sRGB">
<feFlood flood-opacity="0" result="BackgroundImageFix"/>
<feColorMatrix in="SourceAlpha" type="matrix" values="0 0 0 0 0 0 0 0 0 0 0 0 0 0 0 0 0 0 127 0" result="hardAlpha"/>
<feOffset dy="1"/>
<feGaussianBlur stdDeviation="1"/>
<feComposite in2="hardAlpha" operator="out"/>
<feColorMatrix type="matrix" values="0 0 0 0 0 0 0 0 0 0 0 0 0 0 0 0 0 0 0.15 0"/>
<feBlend mode="normal" in2="BackgroundImageFix" result="effect1_dropShadow_317_4210"/>
<feBlend mode="normal" in="SourceGraphic" in2="effect1_dropShadow_317_4210" result="shape"/>
</filter>
<filter id="filter2_d_317_4210" x="12" y="11" width="12" height="10.3333" filterUnits="userSpaceOnUse" color-interpolation-filters="sRGB">
<feFlood flood-opacity="0" result="BackgroundImageFix"/>
<feColorMatrix in="SourceAlpha" type="matrix" values="0 0 0 0 0 0 0 0 0 0 0 0 0 0 0 0 0 0 127 0" result="hardAlpha"/>
<feOffset dy="1"/>
<feGaussianBlur stdDeviation="0.5"/>
<feComposite in2="hardAlpha" operator="out"/>
<feColorMatrix type="matrix" values="0 0 0 0 0 0 0 0 0 0 0 0 0 0 0 0 0 0 0.15 0"/>
<feBlend mode="normal" in2="BackgroundImageFix" result="effect1_dropShadow_317_4210"/>
<feBlend mode="normal" in="SourceGraphic" in2="effect1_dropShadow_317_4210" result="shape"/>
</filter>
</defs>
</svg>
